# xmcd CD database file
#
# Track frame offsets:
#	182
#	12700
#	24742
#	40002
#	57355
#	67920
#	80300
#	92892
#	105422
#	122635
#	137162
#
# Disc length: 2125 seconds
#
# Revision: 4
# Processed by: cddbd v1.5.2PL0 Copyright (c) Steve Scherf et al.
# Submitted via: CDex 1.51
#
DISCID=8c084b0b
DTITLE=Smokey Robinson and The Miracles - Motown Legends
DYEAR=1993
DGENRE=Oldies
TTITLE0=Shop Around
TTITLE1=My Love for You
TTITLE2=Get Ready
TTITLE3=Hey Jude
TTITLE4=He Don't Care About Me
TTITLE5=If You Can Wait
TTITLE6=After All
TTITLE7=I Second That Emotion
TTITLE8=Money (That's What I Want)
TTITLE9=For Once in My Life
TTITLE10=Betcha By Golly Wow
EXTD=YEAR: 1993
EXTT0=
EXTT1=
EXTT2=
EXTT3=
EXTT4=
EXTT5=
EXTT6=
EXTT7=
EXTT8=
EXTT9=
EXTT10=
PLAYORDER=
